<?xml version="1.0" encoding="utf-8"?>
<!-- Generator: Adobe Illustrator 24.1.1, SVG Export Plug-In . SVG Version: 6.00 Build 0)  -->
<svg version="1.1" id="Layer_1" xmlns="http://www.w3.org/2000/svg" xmlns:xlink="http://www.w3.org/1999/xlink" x="0px" y="0px"
	 viewBox="0 0 24 24" style="enable-background:new 0 0 24 24;" xml:space="preserve">
<style type="text/css">
	.st0{fill:#FFFFFF;}
</style>
<path class="st0" d="M7,24H5c-2.8,0-5-2.2-5-5v-2c0-0.6,0.4-1,1-1s1,0.4,1,1v2c0,1.7,1.3,3,3,3h2c0.6,0,1,0.4,1,1S7.6,24,7,24z
	 M24,19v-2c0-0.6-0.4-1-1-1s-1,0.4-1,1v2c0,1.7-1.3,3-3,3h-2c-0.6,0-1,0.4-1,1s0.4,1,1,1h2C21.8,24,24,21.8,24,19z M24,7V5
	c0-2.8-2.2-5-5-5h-2c-0.6,0-1,0.4-1,1s0.4,1,1,1h2c1.7,0,3,1.3,3,3v2c0,0.6,0.4,1,1,1S24,7.6,24,7z M2,7V5c0-1.7,1.3-3,3-3h2
	c0.6,0,1-0.4,1-1S7.6,0,7,0H5C2.2,0,0,2.2,0,5v2c0,0.6,0.4,1,1,1S2,7.6,2,7z M18,10v4c0,1.7-1.3,3-3,3H9c-1.7,0-3-1.3-3-3v-4
	c0-1.6,1.3-3,3-3l0.7-1.1C10,5.3,10.6,5,11.3,5h1.3c0.7,0,1.3,0.3,1.7,0.9L15,7C16.7,7,18,8.4,18,10z M14,12c0-1.1-0.9-2-2-2
	s-2,0.9-2,2s0.9,2,2,2S14,13.1,14,12z"/>
</svg>
