<?xml version="1.0" encoding="utf-8"?>
<!-- Generator: Adobe Illustrator 24.1.1, SVG Export Plug-In . SVG Version: 6.00 Build 0)  -->
<svg version="1.1" id="Layer_1" xmlns="http://www.w3.org/2000/svg" xmlns:xlink="http://www.w3.org/1999/xlink" x="0px" y="0px"
	 viewBox="0 0 512 512" style="enable-background:new 0 0 512 512;" xml:space="preserve">
<style type="text/css">
	.st0{fill:#FFFFFF;}
</style>
<path class="st0" d="M256,512c-21.8,0-43.3-8.3-59.9-24.7L60.2,342.8c-18.1-18.1-23.5-44.6-13.4-68.7s32.4-39.3,58.7-39.5h43.9V64
	c0-35.2,28.8-64,64-64h85.3c35.2,0,64,28.8,64,64v170.7h43.9c26.2,0,48.6,15.1,58.7,39.5c10,24.1,4.7,50.8-13.9,69.1
	c0,0-135.3,143.8-135.5,144C299.5,503.7,277.8,512,256,512z"/>
</svg>
