<?xml version="1.0" encoding="utf-8"?>
<!-- Generator: Adobe Illustrator 24.1.1, SVG Export Plug-In . SVG Version: 6.00 Build 0)  -->
<svg version="1.1" id="Layer_1" xmlns="http://www.w3.org/2000/svg" xmlns:xlink="http://www.w3.org/1999/xlink" x="0px" y="0px"
	 viewBox="0 0 512 512" style="enable-background:new 0 0 512 512;" xml:space="preserve">
<style type="text/css">
	.st0{fill:#FFFFFF;}
</style>
<path class="st0" d="M508.2,238.5L508.2,238.5C489.5,197.6,416,64,256,64S22.5,197.6,3.8,238.5c-5.1,11.1-5.1,23.9,0,35
	C22.5,314.4,96,448,256,448s233.5-133.6,252.2-174.5C513.3,262.4,513.3,249.6,508.2,238.5z M256,384c-70.7,0-128-57.3-128-128
	s57.3-128,128-128s128,57.3,128,128C383.9,326.7,326.7,383.9,256,384z"/>
<circle class="st0" cx="256" cy="256" r="85.3"/>
</svg>
