<?xml version="1.0" encoding="utf-8"?>
<!-- Generator: Adobe Illustrator 24.1.1, SVG Export Plug-In . SVG Version: 6.00 Build 0)  -->
<svg version="1.1" id="Layer_1" xmlns="http://www.w3.org/2000/svg" xmlns:xlink="http://www.w3.org/1999/xlink" x="0px" y="0px"
	 viewBox="0 0 512 512" style="enable-background:new 0 0 512 512;" xml:space="preserve">
<style type="text/css">
	.st0{fill:#FFFFFF;}
</style>
<path class="st0" d="M508.2,238.5L508.2,238.5c-20.6-44.7-50.8-84.3-88.4-116.1l64.7-64.7l-30.2-30.2L384,97.8
	C345.1,75.3,300.9,63.6,256,64C96,64,22.5,197.6,3.8,238.5c-5.1,11.1-5.1,23.9,0,35c20.6,44.7,50.8,84.3,88.4,116.1l-64.7,64.7
	l30.2,30.2l70.3-70.2c38.9,22.5,83.1,34.2,128,33.8c160,0,233.5-133.6,252.2-174.5C513.3,262.4,513.3,249.6,508.2,238.5z M128,256
	c-0.1-70.6,57-127.9,127.6-128c26.7,0,52.8,8.3,74.5,23.8l-31,31c-13-7.8-27.9-12-43.1-12.1c-47.1,0-85.3,38.2-85.3,85.3
	c0.1,15.2,4.3,30.1,12.1,43.1l-31,31C136.3,308.5,128,282.6,128,256z M256,384c-26.6,0-52.5-8.3-74-23.8l31-31
	c13,7.8,27.9,12,43.1,12.1c47.1,0,85.3-38.2,85.3-85.3c-0.1-15.2-4.3-30.1-12.1-43.1l31-31c41,57.4,27.7,137.2-29.7,178.3
	C308.8,375.7,282.7,384,256,384z"/>
</svg>
