<?xml version="1.0" encoding="utf-8"?>
<!-- Generator: Adobe Illustrator 24.1.1, SVG Export Plug-In . SVG Version: 6.00 Build 0)  -->
<svg version="1.1" id="Layer_1" xmlns="http://www.w3.org/2000/svg" xmlns:xlink="http://www.w3.org/1999/xlink" x="0px" y="0px"
	 viewBox="0 0 512 512" style="enable-background:new 0 0 512 512;" xml:space="preserve">
<style type="text/css">
	.st0{fill:#FFFFFF;}
</style>
<path class="st0" d="M320,512c-72.5-0.1-141.6-30.8-190.2-84.6c-49-53.9-72.4-126.2-64.4-198.6C78.5,114.4,165.6,22.5,279.1,3.2
	c35.7-5.5,72.2-4,107.3,4.4c28.5,7.3,45.7,36.4,38.4,64.9c-2.5,9.6-7.6,18.4-14.7,25.2c-97.3,88.9-88.8,227.1,17.2,307.4
	c23.2,18.2,27.2,51.7,9,74.9c-6.2,7.9-14.5,13.9-24,17.3C382.6,507.1,351.4,512,320,512z"/>
</svg>
