<?xml version="1.0" encoding="utf-8"?>
<!-- Generator: Adobe Illustrator 24.1.1, SVG Export Plug-In . SVG Version: 6.00 Build 0)  -->
<svg version="1.1" id="Filled" xmlns="http://www.w3.org/2000/svg" xmlns:xlink="http://www.w3.org/1999/xlink" x="0px" y="0px"
	 viewBox="0 0 512 512" style="enable-background:new 0 0 512 512;" xml:space="preserve">
<style type="text/css">
	.st0{fill:#FFFFFF;}
</style>
<path class="st0" d="M222.3,440.7c-17.1,0-33.8-5.5-47.6-15.7L33,321.1C-3,294.7-10.7,244.2,15.7,208.2c4.9-6.6,10.7-12.4,17.3-17.3
	L174.7,87.1c35.9-26.4,86.4-18.7,112.8,17.2c9,12.2,14.3,26.8,15.5,41.9L383.6,87c36-26.3,86.5-18.5,112.8,17.5
	c10.1,13.8,15.6,30.5,15.6,47.6v207.8c0,44.6-36.2,80.7-80.7,80.7c-17.2,0-33.9-5.5-47.7-15.6l-80.6-59.2
	C299.8,408,264.7,440.6,222.3,440.7L222.3,440.7z"/>
</svg>
