<?xml version="1.0" encoding="utf-8"?>
<!-- Generator: Adobe Illustrator 24.1.1, SVG Export Plug-In . SVG Version: 6.00 Build 0)  -->
<svg version="1.1" id="Layer_1" xmlns="http://www.w3.org/2000/svg" xmlns:xlink="http://www.w3.org/1999/xlink" x="0px" y="0px"
	 viewBox="0 0 250 250" style="enable-background:new 0 0 250 250;" xml:space="preserve">
<style type="text/css">
	.st0{fill:#FFFFFF;}
</style>
<path class="st0" d="M12.7,124.4c0-25.4,0-50.9,0-76.3c0-17.6,11.4-31.7,28.3-35.3c2.7-0.6,5.6-0.8,8.4-0.8c50.7,0,101.3-0.1,152,0
	c21.2,0,36.6,15.4,36.6,36.5c0,50.8,0,101.5,0,152.3c0,21-15.4,36.5-36.3,36.5c-50.9,0.1-101.7,0.1-152.6,0
	c-20.9,0-36.3-15.6-36.3-36.5C12.7,175.3,12.7,149.8,12.7,124.4z"/>
</svg>
