<?xml version="1.0" encoding="utf-8"?>
<!-- Generator: Adobe Illustrator 24.1.1, SVG Export Plug-In . SVG Version: 6.00 Build 0)  -->
<svg version="1.1" id="Capa_1" xmlns="http://www.w3.org/2000/svg" xmlns:xlink="http://www.w3.org/1999/xlink" x="0px" y="0px"
	 viewBox="0 0 512 512" style="enable-background:new 0 0 512 512;" xml:space="preserve">
<style type="text/css">
	.st0{fill:#FFFFFF;}
</style>
<g>
	<path class="st0" d="M448,85.3h-66.1C371.7,35.7,328,0.1,277.3,0h-42.7C184,0.1,140.3,35.7,130.1,85.3H64
		c-11.8,0-21.3,9.6-21.3,21.3S52.2,128,64,128h21.3v277.3C85.4,464.2,133.1,511.9,192,512h128c58.9-0.1,106.6-47.8,106.7-106.7V128
		H448c11.8,0,21.3-9.6,21.3-21.3S459.8,85.3,448,85.3z M234.7,362.7c0,11.8-9.6,21.3-21.3,21.3c-11.8,0-21.3-9.6-21.3-21.3v-128
		c0-11.8,9.6-21.3,21.3-21.3c11.8,0,21.3,9.6,21.3,21.3L234.7,362.7L234.7,362.7z M320,362.7c0,11.8-9.6,21.3-21.3,21.3
		s-21.3-9.6-21.3-21.3v-128c0-11.8,9.6-21.3,21.3-21.3s21.3,9.6,21.3,21.3V362.7z M174.3,85.3c9.1-25.6,33.2-42.6,60.4-42.7h42.7
		c27.1,0,51.3,17.1,60.4,42.7H174.3z"/>
</g>
</svg>
