<?xml version="1.0" encoding="utf-8"?>
<!-- Generator: Adobe Illustrator 24.1.1, SVG Export Plug-In . SVG Version: 6.00 Build 0)  -->
<svg version="1.1" id="Layer_1" xmlns="http://www.w3.org/2000/svg" xmlns:xlink="http://www.w3.org/1999/xlink" x="0px" y="0px"
	 viewBox="0 0 250 250" style="enable-background:new 0 0 250 250;" xml:space="preserve">
<style type="text/css">
	.st0{fill:#FFFFFF;}
</style>
<path class="st0" d="M234,245.2c-2.2-1.5-4.7-2.8-6.6-4.6c-21.4-21.3-42.7-42.6-64-63.9c-0.5-0.6-1-1.3-1.4-2.1
	c-43.2,35.3-104.1,25.5-135.4-13.4c-30.8-38.1-28-93.3,6.7-128c34.5-34.6,89.5-37.3,127.9-6.6c39.1,31.4,48.7,92.2,13.5,135.4
	c0.7,0.4,1.4,0.9,2.1,1.4c21.3,21.3,42.6,42.6,63.9,64c1.9,1.9,3.1,4.4,4.6,6.6v3.8c-1.1,3.6-3.9,6.4-7.5,7.5L234,245.2z M24,100.7
	c-0.1,42.5,34.2,77,76.7,77s77-34.2,77-76.7c0.1-42.5-34.2-77-76.7-77c0,0,0,0,0,0C58.6,23.9,24.1,58.3,24,100.7z"/>
<path class="st0" d="M91.5,91.5v-2.8c0-11.3,0-22.6,0-34c0.1-5.1,4.3-9.3,9.5-9.2c3.8,0.1,7.2,2.4,8.5,5.9c0.5,1.4,0.7,2.9,0.7,4.3
	c0.1,10.9,0,21.9,0,32.8v2.8h2.7c11.3,0,22.7,0,34,0c5.2,0.1,9.3,4.3,9.2,9.5c0,2.3-0.9,4.5-2.4,6.2c-1.9,2.1-4.7,3.3-7.5,3.1
	c-11,0-22,0-33,0h-2.9v2.6c0,11.2,0,22.5,0,33.7c0.2,3.7-2,7.1-5.4,8.6c-3.2,1.7-7.1,1.2-9.9-1.1c-2.3-1.8-3.6-4.7-3.5-7.6
	c0-11.1,0-22.2,0-33.3v-2.9h-2.6c-11.3,0-22.7,0-34,0c-5.2,0-9.4-4.2-9.4-9.3c0-4.4,3.1-8.2,7.4-9.2c1.1-0.2,2.2-0.3,3.3-0.2
	c10.9,0,21.7,0,32.6,0L91.5,91.5z"/>
</svg>
