<?xml version="1.0" encoding="utf-8"?>
<!-- Generator: Adobe Illustrator 24.1.1, SVG Export Plug-In . SVG Version: 6.00 Build 0)  -->
<svg version="1.1" id="Layer_1" xmlns="http://www.w3.org/2000/svg" xmlns:xlink="http://www.w3.org/1999/xlink" x="0px" y="0px"
	 viewBox="0 0 250 250" style="enable-background:new 0 0 250 250;" xml:space="preserve">
<style type="text/css">
	.st0{fill:#FFFFFF;}
</style>
<path class="st0" d="M227.5,245.2c-1.9-1.4-4-2.5-5.5-4.1c-22.2-22.9-44.3-45.9-66.3-68.9c-0.6-0.6-1.1-1.3-1.6-2
	c-22.8,14.6-47.1,19-72.9,12.4c-21.8-5.3-40.6-18.8-52.7-37.6c-27.4-41.5-16-97.5,25.5-124.9c35.7-23.6,83-18.8,113.3,11.3
	c34.1,33.7,37,92.4-1,128.9c1.4,1.5,2.9,3,4.3,4.6c20.9,21.7,41.7,43.6,62.8,65.1c4.6,4.6,5.8,11.6-2.1,15.2H227.5z M177.9,95.3
	c0-41.1-33.3-74.3-74.4-74.3c-41.1,0-74.3,33.3-74.3,74.4c0,41.1,33.3,74.3,74.4,74.3c41,0,74.3-33.2,74.3-74.2
	C177.9,95.5,177.9,95.4,177.9,95.3L177.9,95.3z"/>
<path class="st0" d="M103.6,103.2c-13.4,0-26.9,0-40.3,0c-3.5,0.1-6.6-2.1-7.6-5.5c-1.1-3.2,0.1-6.8,2.9-8.7c1.5-0.9,3.2-1.5,5-1.5
	c26.7-0.1,53.3-0.1,79.9,0c4.9,0,8.4,3.5,8.4,8s-3.6,7.8-8.5,7.8C130.1,103.3,116.9,103.2,103.6,103.2z"/>
</svg>
